<?xml version="1.0" standalone="no"?>
<!DOCTYPE svg PUBLIC "-//W3C//DTD SVG 20010904//EN"
 "http://www.w3.org/TR/2001/REC-SVG-20010904/DTD/svg10.dtd">
<svg version="1.0" xmlns="http://www.w3.org/2000/svg"
 width="500.000000pt" height="500.000000pt" viewBox="0 0 500.000000 500.000000"
 preserveAspectRatio="xMidYMid meet">
<metadata>
Created by potrace 1.14, written by Peter Selinger 2001-2017
</metadata>
<g transform="translate(0.000000,500.000000) scale(0.100000,-0.100000)"
fill="#000000" stroke="none">
<path d="M3808 4352 l-48 -3 0 -292 c-1 -161 -3 -1139 -5 -2174 l-5 -1883 350
0 350 0 1 363 c0 199 2 1181 5 2182 2 1001 1 1815 -4 1810 -9 -14 -142 -13
-142 0 0 6 -7 1 -15 -9 -8 -11 -15 -15 -15 -9 0 7 -32 11 -86 11 -47 0 -89 3
-92 6 -3 3 -11 1 -19 -5 -10 -9 -13 -8 -13 2 0 8 -3 9 -9 3 -6 -5 -47 -7 -95
-4 -48 3 -86 1 -86 -4 0 -5 -5 -5 -12 0 -7 5 -34 8 -60 6z"/>
<path d="M1578 3542 c-17 -3 -18 -24 -18 -270 -1 -147 -3 -943 -5 -1769 l-5
-1503 350 0 350 0 1 258 c0 141 2 938 5 1769 l4 1513 -22 -4 c-13 -2 -29 1
-35 6 -9 7 -13 7 -13 0 0 -6 -9 -10 -20 -9 -11 1 -20 5 -20 10 0 6 -5 6 -12 0
-14 -10 -140 -9 -157 1 -5 3 -11 3 -13 -1 -1 -5 -54 -6 -116 -3 -61 3 -112 1
-112 -3 0 -4 -9 -3 -19 3 -14 7 -22 7 -26 0 -4 -6 -11 -8 -16 -5 -11 7 -77 12
-101 7z"/>
<path d="M2686 3141 c-3 -5 -8 -714 -10 -1575 l-4 -1566 349 0 349 0 1 98 c0
53 2 759 5 1569 l5 1472 -43 -3 c-24 -1 -49 2 -55 7 -7 5 -13 5 -13 1 0 -5
-22 -9 -50 -9 -27 0 -50 2 -50 6 0 3 -18 3 -40 -1 -22 -4 -40 -4 -40 1 0 5
-10 5 -22 0 -13 -5 -33 -5 -45 0 -13 5 -23 5 -23 1 0 -9 -53 -8 -68 2 -6 3
-13 2 -16 -2 -3 -5 -18 -8 -33 -5 -58 8 -163 8 -163 -1 0 -5 -6 -3 -14 3 -9 7
-17 8 -20 2z"/>
<path d="M470 1285 l0 -1285 350 0 350 0 0 1285 0 1285 -350 0 -350 0 0 -1285z"/>
</g>
</svg>
